<svg width="169" height="77" viewBox="0 0 169 77" fill="none" xmlns="http://www.w3.org/2000/svg">
<g clip-path="url(#clip0_14_166)">
<g filter="url(#filter0_d_14_166)">
<path d="M94.2059 41.8791C92.8728 39.5698 92.8728 36.7247 94.2059 34.4155L108.971 8.84253C110.304 6.53329 112.768 5.11077 115.434 5.11077L144.963 5.11073C147.629 5.11073 150.094 6.53329 151.427 8.84253L166.191 34.4155C167.525 36.7247 167.525 39.5698 166.191 41.8791L151.427 67.4518C150.094 69.7614 147.629 71.1836 144.963 71.1836H115.434C112.768 71.1836 110.304 69.7614 108.971 67.4518L94.2059 41.8791Z" fill="#5ECCC5"/>
</g>
<g filter="url(#filter1_d_14_166)">
<path d="M51.9119 41.8791C50.5788 39.5698 50.5788 36.7247 51.9119 34.4155L66.6766 8.84253C68.0097 6.53329 70.4739 5.11077 73.14 5.11077L102.669 5.11073C105.336 5.11073 107.8 6.53329 109.133 8.84253L123.897 34.4155C125.231 36.7247 125.231 39.5698 123.897 41.8791L109.133 67.4518C107.8 69.7614 105.336 71.1836 102.669 71.1836H73.14C70.4739 71.1836 68.0097 69.7614 66.6766 67.4518L51.9119 41.8791Z" fill="#A5DFDD"/>
</g>
<g filter="url(#filter2_d_14_166)">
<path d="M8.78897 41.8791C7.45576 39.5698 7.45576 36.7247 8.78897 34.4155L23.5535 8.84253C24.8867 6.53329 27.3507 5.11077 30.0172 5.11077L59.5464 5.11073C62.2125 5.11073 64.6768 6.53329 66.0098 8.84253L80.7745 34.4155C82.1076 36.7247 82.1076 39.5698 80.7745 41.8791L66.0098 67.4518C64.6768 69.7614 62.2125 71.1836 59.5464 71.1836H30.0172C27.3507 71.1836 24.8867 69.7614 23.5535 67.4518L8.78897 41.8791Z" fill="#E1AA65"/>
</g>
<path d="M14.1646 50.4473L11.6768 46.0952C14.2951 46.0952 25.5292 46.0421 27.7583 45.936C29.9874 45.8298 32.0043 45.6884 33.8088 45.5114C35.6133 45.3343 37.1525 45.1577 38.4263 44.9806C39.7354 44.7683 40.7262 44.556 41.3985 44.3437C42.637 43.9544 43.769 43.4593 44.7952 42.8576C45.8567 42.256 46.7059 41.5129 47.3428 40.6285C48.0149 39.7085 48.3512 38.647 48.3512 37.444C48.3512 36.8425 48.2272 36.2056 47.9797 35.5334C47.7674 34.8611 47.449 34.2419 47.0244 33.6758C46.635 33.0742 46.1573 32.5966 45.5913 32.2427C45.0606 31.8535 44.4768 31.6589 43.8399 31.6589C42.9907 31.6589 42.1946 31.9597 41.4515 32.5612C40.7439 33.1627 40.16 33.9234 39.7001 34.8434C39.2755 35.7634 39.0632 36.701 39.0632 37.6563C39.0632 38.7886 39.3463 39.7793 39.9124 40.6285C40.5139 41.4423 41.2392 42.1498 42.0884 42.7515C42.9376 43.3175 43.7868 43.7951 44.636 44.1845L39.5939 45.8829C39.0278 45.4583 38.3555 44.8745 37.5771 44.1314C36.8341 43.3884 36.1618 42.4683 35.5603 41.3715C34.9942 40.2747 34.7111 39.0009 34.7111 37.5502C34.7111 36.1349 34.9587 34.808 35.4541 33.5696C35.9495 32.3312 36.6395 31.252 37.524 30.3321C38.4086 29.3767 39.3993 28.6337 40.4962 28.1029C41.6286 27.5722 42.7962 27.3068 43.9991 27.3068C45.7327 27.3068 47.2545 27.8022 48.5635 28.7929C49.8726 29.7482 50.881 30.9867 51.5888 32.5081C52.3318 33.9942 52.7033 35.5334 52.7033 37.1256C52.7033 38.647 52.4201 40.0093 51.8541 41.2123C51.2881 42.4152 50.5094 43.4767 49.5189 44.3968C48.5635 45.3169 47.4311 46.113 46.1221 46.7851C44.8483 47.4573 43.4862 48.0059 42.0354 48.4305C41.2215 48.678 40.0539 48.926 38.5324 49.1735C37.011 49.3858 35.2241 49.5803 33.1719 49.7573C31.1197 49.9696 28.8906 50.1288 26.4845 50.235C24.1139 50.3764 16.7122 50.4473 14.1646 50.4473ZM56.6839 49.5981C54.9146 49.5981 53.1458 49.5098 51.3765 49.3327C49.6072 49.1204 47.8914 48.8372 46.2282 48.4835C44.6008 48.0942 43.079 47.6343 41.6638 47.1036L45.326 44.556C46.3875 44.6974 47.6434 44.8214 49.0943 44.9275C50.5451 45.0337 51.9955 45.122 53.4464 45.1929C54.8972 45.2282 56.1532 45.246 57.2146 45.246C57.9577 45.246 58.4884 45.4583 58.8069 45.8829C59.1606 46.2722 59.3376 46.7499 59.3376 47.3159C59.3376 47.8819 59.0901 48.4126 58.5946 48.9081C58.0991 49.368 57.4622 49.5981 56.6839 49.5981ZM43.5214 21.8401C42.7784 21.8401 42.1415 21.5925 41.6108 21.0971C41.1154 20.5664 40.8677 19.9472 40.8677 19.2395C40.8677 18.5318 41.1154 17.9126 41.6108 17.3819C42.1415 16.8511 42.7784 16.5858 43.5214 16.5858C44.2292 16.5858 44.8305 16.8511 45.326 17.3819C45.8567 17.9126 46.1221 18.5318 46.1221 19.2395C46.1221 19.9472 45.8567 20.5664 45.326 21.0971C44.8305 21.5925 44.2292 21.8401 43.5214 21.8401Z" fill="white"/>
<path d="M56.665 49.5981L57.1958 45.246H71.5259C72.2689 45.246 72.7997 45.4583 73.1181 45.8829C73.4718 46.2722 73.6489 46.7499 73.6489 47.3159C73.6489 47.8819 73.4013 48.4126 72.9058 48.9081C72.4103 49.368 71.7734 49.5981 70.9951 49.5981H56.665Z" fill="white"/>
<path d="M70.9707 49.5981L71.5014 45.246H85.8316C86.5746 45.246 87.1053 45.4583 87.4238 45.8829C87.7775 46.2722 87.9545 46.7499 87.9545 47.3159C87.9545 47.8819 87.707 48.4126 87.2115 48.9081C86.716 49.368 86.0791 49.5981 85.3008 49.5981H70.9707Z" fill="white"/>
<path d="M85.2754 49.5981L85.8061 45.246H100.136C100.879 45.246 101.41 45.4583 101.728 45.8829C102.082 46.2722 102.259 46.7499 102.259 47.3159C102.259 47.8819 102.012 48.4126 101.516 48.9081C101.021 49.368 100.384 49.5981 99.6055 49.5981H85.2754Z" fill="white"/>
<path d="M99.5811 49.5981L100.112 45.246C101.881 45.246 103.261 45.122 104.252 44.8745C105.242 44.5913 105.985 44.0784 106.481 43.3353C107.011 42.557 107.436 41.4423 107.755 39.9916C108.073 38.5409 108.462 36.6479 108.922 34.3127L113.062 35.1088C112.921 35.7457 112.761 36.4533 112.584 37.2317C112.407 38.0102 112.248 38.7886 112.107 39.567C112 40.3101 111.947 40.9647 111.947 41.5308C111.947 42.0615 111.983 42.557 112.054 43.0169C112.124 43.4767 112.39 43.8661 112.85 44.1845C113.31 44.503 114.088 44.7683 115.185 44.9806C116.282 45.1577 117.856 45.246 119.909 45.246C120.652 45.246 121.182 45.4583 121.501 45.8829C121.854 46.2722 122.032 46.7499 122.032 47.3159C122.032 47.8819 121.784 48.4126 121.289 48.9081C120.793 49.368 120.156 49.5981 119.378 49.5981C117.22 49.5981 115.503 49.492 114.23 49.2797C112.956 49.0321 111.983 48.678 111.311 48.2182C110.674 47.7583 110.214 47.1919 109.931 46.5198C109.683 45.812 109.488 44.9985 109.347 44.0784L110.939 44.1845C110.373 45.3169 109.754 46.2366 109.081 46.9444C108.444 47.6522 107.701 48.2003 106.852 48.5897C106.003 48.979 104.977 49.2444 103.774 49.3858C102.606 49.5272 101.209 49.5981 99.5811 49.5981ZM112.956 59.6292C112.213 59.6292 111.576 59.3638 111.045 58.8331C110.55 58.3376 110.302 57.7363 110.302 57.0285C110.302 56.3207 110.55 55.7017 111.045 55.1709C111.576 54.6402 112.213 54.3748 112.956 54.3748C113.664 54.3748 114.265 54.6402 114.76 55.1709C115.291 55.7017 115.556 56.3207 115.556 57.0285C115.556 57.7363 115.291 58.3376 114.76 58.8331C114.265 59.3638 113.664 59.6292 112.956 59.6292ZM105.685 59.6292C104.942 59.6292 104.305 59.3638 103.774 58.8331C103.278 58.3376 103.031 57.7363 103.031 57.0285C103.031 56.3207 103.278 55.7017 103.774 55.1709C104.305 54.6402 104.942 54.3748 105.685 54.3748C106.392 54.3748 106.994 54.6402 107.489 55.1709C108.02 55.7017 108.285 56.3207 108.285 57.0285C108.285 57.7363 108.02 58.3376 107.489 58.8331C106.994 59.3638 106.392 59.6292 105.685 59.6292Z" fill="white"/>
<path d="M119.38 49.5981L119.911 45.246C121.043 45.246 121.963 45.1751 122.671 45.0337C123.378 44.8566 123.962 44.4499 124.422 43.813C124.917 43.1408 125.377 42.0968 125.802 40.6816C126.226 39.2663 126.722 37.2848 127.288 34.7372L131.269 35.8518C131.127 36.4533 130.968 37.1433 130.791 37.9217C130.614 38.6648 130.455 39.4432 130.313 40.257C130.172 41.0354 130.101 41.7609 130.101 42.433C130.101 43.3175 130.437 44.0075 131.109 44.5029C131.781 44.9984 133.002 45.246 134.771 45.246C135.833 45.246 136.7 45.1577 137.372 44.9806C138.044 44.8036 138.593 44.379 139.017 43.7068C139.477 43.0347 139.884 41.9554 140.238 40.4693C140.592 38.9832 140.963 36.9487 141.353 34.3657L145.386 35.1088C145.28 35.7457 145.156 36.5241 145.015 37.444C144.873 38.364 144.732 39.2839 144.59 40.2039C144.484 41.0885 144.431 41.8314 144.431 42.433C144.431 42.9285 144.537 43.4062 144.749 43.8661C144.997 44.2906 145.457 44.6269 146.129 44.8745C146.837 45.122 147.881 45.246 149.261 45.246C150.287 45.246 151.171 45.122 151.915 44.8745C152.693 44.6269 153.277 44.1667 153.666 43.4945C154.091 42.8224 154.303 41.8845 154.303 40.6816C154.303 39.337 153.984 37.6563 153.348 35.6395C152.746 33.5873 152.056 31.5528 151.278 29.5359L155.577 27.9437C156.037 29.076 156.461 30.3674 156.85 31.8181C157.275 33.2689 157.629 34.7019 157.912 36.1172C158.195 37.5325 158.337 38.7709 158.337 39.8324C158.337 41.46 158.124 42.8929 157.7 44.1314C157.275 45.37 156.673 46.3958 155.895 47.2097C155.117 47.988 154.161 48.5897 153.029 49.0143C151.897 49.4036 150.623 49.5981 149.208 49.5981C147.545 49.5981 146.182 49.4036 145.121 49.0143C144.06 48.6249 143.246 48.0411 142.68 47.2628C142.114 46.4489 141.742 45.423 141.565 44.1845H143.37C142.697 45.7058 141.99 46.8561 141.247 47.6343C140.504 48.4126 139.583 48.9434 138.487 49.2266C137.39 49.4741 135.939 49.5981 134.135 49.5981C133.25 49.5981 132.295 49.4567 131.269 49.1735C130.278 48.8903 129.411 48.3421 128.668 47.5282C127.925 46.679 127.482 45.423 127.341 43.7599L128.933 43.4415C128.332 45.246 127.589 46.5907 126.704 47.4751C125.855 48.3243 124.829 48.8903 123.626 49.1735C122.423 49.4567 121.007 49.5981 119.38 49.5981Z" fill="white"/>
<path d="M134.149 28.1991V25.97L143.065 23.3428V25.6117L134.149 28.1991ZM135.661 21.5515C134.6 21.5515 133.897 21.2066 133.552 20.5166C133.207 19.8001 133.034 19.0438 133.034 18.2477C133.034 17.9558 133.047 17.6506 133.074 17.3321C133.127 16.9871 133.193 16.6024 133.273 16.1778L135.263 15.6205C135.184 16.0716 135.117 16.4962 135.064 16.8943C135.038 17.2658 135.024 17.5975 135.024 17.8894C135.024 18.3936 135.104 18.7651 135.263 19.004C135.423 19.2428 135.675 19.3622 136.02 19.3622C136.418 19.3622 136.749 19.1632 137.015 18.7651C137.28 18.3405 137.426 17.5046 137.453 16.2574V15.0632L139.363 14.3467V16.7748C139.363 17.1464 139.43 17.4781 139.562 17.77C139.722 18.0354 140.04 18.1681 140.518 18.1681C140.995 18.1681 141.314 18.0221 141.473 17.7302C141.632 17.4383 141.712 17.0668 141.712 16.6156C141.712 16.1645 141.659 15.7134 141.553 15.2622C141.446 14.7846 141.301 14.3202 141.115 13.869L142.906 13.3117C143.171 13.8159 143.384 14.3998 143.543 15.0632C143.729 15.7001 143.822 16.2839 143.822 16.8147C143.822 17.6904 143.569 18.4865 143.065 19.203C142.588 19.893 141.831 20.238 140.796 20.238C139.974 20.238 139.297 20.0257 138.766 19.6011C138.262 19.1499 138.01 18.6192 138.01 18.0088L138.925 18.3671C138.925 19.2693 138.607 20.0257 137.97 20.636C137.36 21.2464 136.59 21.5515 135.661 21.5515Z" fill="white"/>
</g>
<defs>
<filter id="filter0_d_14_166" x="89.2061" y="5.11073" width="81.9854" height="74.0729" filterUnits="userSpaceOnUse" color-interpolation-filters="sRGB">
<feFlood flood-opacity="0" result="BackgroundImageFix"/>
<feColorMatrix in="SourceAlpha" type="matrix" values="0 0 0 0 0 0 0 0 0 0 0 0 0 0 0 0 0 0 127 0" result="hardAlpha"/>
<feOffset dy="4"/>
<feGaussianBlur stdDeviation="2"/>
<feComposite in2="hardAlpha" operator="out"/>
<feColorMatrix type="matrix" values="0 0 0 0 0 0 0 0 0 0 0 0 0 0 0 0 0 0 0.25 0"/>
<feBlend mode="normal" in2="BackgroundImageFix" result="effect1_dropShadow_14_166"/>
<feBlend mode="normal" in="SourceGraphic" in2="effect1_dropShadow_14_166" result="shape"/>
</filter>
<filter id="filter1_d_14_166" x="46.9121" y="5.11073" width="81.9854" height="74.0729" filterUnits="userSpaceOnUse" color-interpolation-filters="sRGB">
<feFlood flood-opacity="0" result="BackgroundImageFix"/>
<feColorMatrix in="SourceAlpha" type="matrix" values="0 0 0 0 0 0 0 0 0 0 0 0 0 0 0 0 0 0 127 0" result="hardAlpha"/>
<feOffset dy="4"/>
<feGaussianBlur stdDeviation="2"/>
<feComposite in2="hardAlpha" operator="out"/>
<feColorMatrix type="matrix" values="0 0 0 0 0 0 0 0 0 0 0 0 0 0 0 0 0 0 0.25 0"/>
<feBlend mode="normal" in2="BackgroundImageFix" result="effect1_dropShadow_14_166"/>
<feBlend mode="normal" in="SourceGraphic" in2="effect1_dropShadow_14_166" result="shape"/>
</filter>
<filter id="filter2_d_14_166" x="3.78906" y="5.11073" width="81.9854" height="74.0729" filterUnits="userSpaceOnUse" color-interpolation-filters="sRGB">
<feFlood flood-opacity="0" result="BackgroundImageFix"/>
<feColorMatrix in="SourceAlpha" type="matrix" values="0 0 0 0 0 0 0 0 0 0 0 0 0 0 0 0 0 0 127 0" result="hardAlpha"/>
<feOffset dy="4"/>
<feGaussianBlur stdDeviation="2"/>
<feComposite in2="hardAlpha" operator="out"/>
<feColorMatrix type="matrix" values="0 0 0 0 0 0 0 0 0 0 0 0 0 0 0 0 0 0 0.25 0"/>
<feBlend mode="normal" in2="BackgroundImageFix" result="effect1_dropShadow_14_166"/>
<feBlend mode="normal" in="SourceGraphic" in2="effect1_dropShadow_14_166" result="shape"/>
</filter>
<clipPath id="clip0_14_166">
<rect width="168.346" height="76.2946" fill="white"/>
</clipPath>
</defs>
</svg>
